<?xml version="1.0" standalone="no"?><svg xmlns="http://www.w3.org/2000/svg" viewBox="0 0 1440 320"><path fill="#f38648" fill-opacity="1" d="M0,128L40,117.3C80,107,160,85,240,117.3C320,149,400,235,480,272C560,309,640,299,720,277.3C800,256,880,224,960,176C1040,128,1120,64,1200,69.3C1280,75,1360,149,1400,186.7L1440,224L1440,320L1400,320C1360,320,1280,320,1200,320C1120,320,1040,320,960,320C880,320,800,320,720,320C640,320,560,320,480,320C400,320,320,320,240,320C160,320,80,320,40,320L0,320Z"></path></svg>